<?xml version="1.0" encoding="UTF-8"?>
<svg id="Layer_1" data-name="Layer 1" xmlns="http://www.w3.org/2000/svg" version="1.1" viewBox="0 0 2400 238.3">
  <defs>
    <style>
      .cls-1 {
        stroke: #2d70b3;
      }

      .cls-1, .cls-2 {
        fill: none;
        stroke-linecap: round;
        stroke-linejoin: round;
        stroke-width: 1.5px;
      }

      .cls-2 {
        stroke: #c74440;
      }
    </style>
  </defs>
  <g id="sketch-b740953d">
    <path class="cls-2" d="M0,163H0l5.3-3.5,6.4-6,8.2-9.8,11.1-15.9,19.3-28,8.2-9.4,7-5.9,5.9-3.2,4.7-1.3,2.9-.2,4.7.6,4.7,1.7,5.3,3.3,6.4,5.7,7.6,8.8,10,13.9,24,34.5,7.6,8.3,7,5.5,5.3,2.6,4.7,1.1h2c0,.1,4.4-.4,4.4-.4l4.7-1.7,5.3-3.2,6.4-5.6,7.6-8.7,10-13.8,24.6-35.3,7.6-8.2,7-5.4,5.3-2.5,4.7-1h1.8c0,0,4.7.5,4.7.5l4.7,1.7,5.3,3.3,6.4,5.7,7.6,8.8,10,13.9,24,34.5,7.6,8.3,7,5.5,5.3,2.6,4.7,1.1h2.1c0,.1,4.4-.4,4.4-.4l4.7-1.7,5.3-3.2,6.4-5.6,7.6-8.7,10-13.8,24.6-35.3,7.6-8.2,7-5.4,5.3-2.5,4.7-1h1.8c0,0,4.6.5,4.6.5l4.7,1.7,5.3,3.2,6.4,5.7,7.6,8.8,10,13.9,24,34.5,7.6,8.3,7,5.5,5.3,2.6,4.7,1.1h2.1c0,.1,4.3-.4,4.3-.4l4.7-1.6,5.3-3.2,6.4-5.6,7.6-8.7,10-13.8,24.6-35.3,7.6-8.2,7-5.4,5.3-2.5,4.7-1h1.9c0,0,4.6.5,4.6.5l4.7,1.7,5.3,3.2,6.4,5.7,7.6,8.8,10,13.9,24,34.5,7.6,8.3,7,5.6,5.3,2.6,4.7,1.1h2.2c0,.1,4.2-.3,4.2-.3l4.7-1.6,5.3-3.1,6.4-5.6,7.6-8.7,10-13.8,24.6-35.3,7.6-8.2,7-5.5,5.3-2.5,4.7-1.1h1.9c0,0,4.5.4,4.5.4l4.7,1.7,5.3,3.2,6.4,5.7,7.6,8.8,10,13.8,24.6,35.2,7.6,8.2,7,5.4,5.3,2.5,4.7,1h1.7c0,0,4.8-.5,4.8-.5l4.7-1.8,5.3-3.3,6.4-5.7,7.6-8.8,10-13.9,24-34.4,7.6-8.2,7-5.5,5.3-2.6,4.7-1.1h2c0-.1,4.4.4,4.4.4l4.7,1.7,5.3,3.2,6.4,5.6,7.6,8.8,10,13.8,24.6,35.2,7.6,8.2,7,5.4,5.3,2.5,4.7,1h1.7c0,0,4.7-.5,4.7-.5l4.7-1.7,5.3-3.3,6.4-5.7,7.6-8.8,10-13.9,24-34.5,7.6-8.3,7-5.5,5.3-2.6,4.7-1.1h2.1c0-.1,4.4.4,4.4.4l4.7,1.7,5.3,3.2,6.4,5.6,7.6,8.7,10,13.8,24.6,35.3,7.6,8.2,7,5.4,5.3,2.5,4.7,1h1.8c0,0,4.7-.5,4.7-.5l4.7-1.7,5.3-3.3,6.4-5.7,7.6-8.8,10-13.9,24-34.5,7.6-8.3,7-5.5,5.3-2.6,4.7-1.1h2.1c0-.1,4.3.4,4.3.4l4.7,1.6,5.3,3.2,6.4,5.6,7.6,8.7,10,13.8,24.6,35.3,7.6,8.2,7,5.4,5.3,2.5,4.7,1h1.8c0,0,4.6-.5,4.6-.5l4.7-1.7,5.3-3.2,6.4-5.7,7.6-8.8,10-13.9,24-34.5,7.6-8.3,7-5.5,5.3-2.6,4.7-1.1h2.2c0-.1,4.3.4,4.3.4l4.7,1.6,5.3,3.2,6.4,5.6,7.6,8.7,10,13.8,24.6,35.3,7.6,8.2,7,5.5,5.3,2.5,4.7,1.1h1.9c0,0,4.5-.4,4.5-.4l4.7-1.7,5.3-3.2,6.4-5.7,7.6-8.8,10-13.8,24-34.5,7.6-8.3,7-5.6,5.3-2.6,4.7-1.1h2.2c0-.1,4.2.3,4.2.3l4.7,1.6,5.3,3.1,6.4,5.6,7.6,8.7,10,13.8,25.2,36,7.6,8.1,7,5.3,5.3,2.4,4.7.9h1.4c0,0,4.5-.5,4.5-.5l4.7-1.7,5.3-3.2,6.4-5.7,7.6-8.8,10-13.8,24.6-35.2,7.6-8.2,7-5.4,5.3-2.5,4.7-1h1.7c0,0,4.7.5,4.7.5l4.7,1.7,5.3,3.3,6.4,5.7,7.6,8.8,10,13.9,24,34.5,7.6,8.3,7,5.5,5.3,2.6,4.7,1.1h2c0,.1,4.4-.4,4.4-.4l4.7-1.7,5.3-3.2,6.4-5.6,7.6-8.7,10-13.8,24.6-35.3,7.6-8.2,7-5.4,5.3-2.5,4.7-1h1.8c0,0,4.7.5,4.7.5l4.7,1.7,5.3,3.3,6.4,5.7,7.6,8.8,10,13.9,24,34.5,7.6,8.3,7,5.5,5.3,2.6,4.7,1.1h2.1c0,.1,4.4-.4,4.4-.4l4.7-1.7,5.3-3.2,6.4-5.6,7.6-8.7,10-13.8,24.6-35.3,7.6-8.2,7-5.4,5.3-2.5,4.7-1h1.8c0,0,4.6.5,4.6.5l4.7,1.7,5.3,3.2,6.4,5.7,7.6,8.8,10,13.9,24,34.5,7.6,8.3,7,5.5,5.3,2.6,4.7,1.1h2.1c0,.1,4.3-.4,4.3-.4l4.7-1.6,5.3-3.2,6.4-5.6,7.6-8.7,10-13.8,24.6-35.3,7.6-8.2,7-5.4,5.3-2.5,3.5-.9"/>
  </g>
  <g id="sketch-b740953d-2" data-name="sketch-b740953d">
    <path class="cls-1" d="M0,163.8H0l2.3-3.9,2.9-7.8,2.9-11.6,4.1-22,5.9-32.5,1.8-5.4,1.3-1.4,1,.9,1.2,3.4,1.8,9.8,2.3,20.9,4.7,45.7,1.2,5.4.7,1,.4-.3,1.2-4.6,1.8-16.2,5.3-63.9.9-2.1.3.3,1.2,6.3,1.8,22.6,3.5,52.9,1.2,5.1.6-1.4,1.2-10.6,2.3-41.4,1.8-27.4,1.2-6.3.6,1.6,1.2,12.4,4.8,73.1.5-1.3,1.2-13,4.1-71.7.4-1.1.7,3,1.2,16.3,3.5,65.4.6,2.4.5-1.7,1.2-14.4,4.3-71,.4.8,1.2,12.3,4.1,72.8.5,1.3.7-2.6,1.2-15.2,4.1-68.6.4-.7.8,3.2,1.2,14.8,4.1,67.2.7,1.9.5-1.2,1.2-10.5,5.3-74.8.4-.6.7,1.9,1.2,10,2.9,44,2.3,26.9,1.3,4.3.4-.5,1.2-5.6,1.8-17.4,4.7-53.9,1.8-8.7.8-1,.3.2,1.2,2.8,1.8,9.7,4.1,34.5,3.5,25.5,2.3,10,1.8,3.6,1.3.7,1.1-.5,1.8-2.5,2.9-7.6,5.9-20.7,7.6-25.4,5.9-15.4,4.7-9.3,3.5-4.5,2.3-1.2,1.8.3,1.8,1.7,2.3,4.7,2.3,8,2.9,14.8,5.3,35.5,2.9,16.6,1.8,5,.7.5,1.1-1.2,1.2-4.2,1.8-11.9,2.9-30.9,3.5-34.2,1.2-4.5.4-.3.8,1.3,1.2,6.8,1.8,19.8,4.1,54.2,1.3,5,.5-.7,1.2-7.7,1.8-24.8,3.5-51.3.8-2.6.4.5,1.2,8.9,1.8,29.2,2.3,40.7,1.3,7.8.5-1,1.2-11.5,4.8-74.6.4,1.1,1.2,12.6,4.1,72.3.5,1.2.7-3,1.2-16.2,3.5-65.5.6-2.4.5,1.7,1.2,14.4,4.3,71,.4-.7,1.2-12.1,4.6-74.3.7,2.3,1.2,14.6,4.1,69.1.5,1.1.7-2.5,1.2-13.7,4.1-68,.8-3,.3.4,1.2,8.5,2.3,37.9,2.3,34.1,1.4,6.2.4-.5,1.2-7.2,1.8-22.4,3.5-48.2,1.2-7.4.8-1.4.4.3,1.2,4.9,1.8,15.9,5.3,56.9,1.8,8,.9,1.1,1.4-2.3,1.8-8.1,3.5-25.8,4.7-32.8,2.9-12.3,2.3-4.8,1.8-1,1.7.8,2.3,3.2,3.5,7.7,6.4,18.2,17.6,50.5,2.9,5.1,2.5,1.7,1-.3,1.8-2.1,1.8-4.5,2.3-10.1,2.9-18.9,6.4-46.1,1.8-4.9.4-.2,1.4,2.3,1.2,5.8,1.8,14.9,6.4,63.5.5.6.7-1,1.2-6.7,1.8-20.5,4.1-55.1,1.1-3.9.7,1.4,1.2,9.5,2.3,37.8,2.3,34,1,4.3.7-2.3,1.2-12.5,4.9-72.3.4.6,1.2,10.6,4.9,75.9.4-.9,1.2-12.2,4.6-74,.7,2.9,1.2,16.2,3.5,65.6.6,2.4.5-1.7,1.2-14.4,4.3-71,.3.7,1.2,11.9,4.7,74.5.6-2,1.2-14,4.1-69.5.6-1.6.6,1.7,1.2,12.4,4.7,72.1.5.9.7-1.9,1.2-11.2,5.3-72.9.6-1.1.6,1.1,1.2,8,2.3,31.1,2.9,37.8,1.8,9,.3.2.8-1.4,1.2-6.3,2.3-22.9,4.1-42.8,1.8-10.2,1.2-3.1.6-.4,1.1,1.2,1.8,6.1,2.9,17.5,6.4,41.2,2.9,12,2.3,5.8,2.3,2.9,1.7.5,1.9-.6,2.3-2.2,3.5-5.4,4.7-10.2,5.3-14.6,6.4-21.9,7.6-26.1,2.3-4.8,1.9-1.4,1.1.5,1.8,3.3,1.8,6.6,2.3,14.1,4.1,34.5,2.9,21.7,1.8,6.1.5.3.7-.7,1.2-4.3,1.8-13.8,6.4-67.5.6-.8.6.9,1.2,6.9,1.8,21.5,4.1,55.2.9,2.6.3-.3,1.2-7.3,1.8-25.7,2.9-47.6,1.2-6.2.5,1.3,1.2,11.2,5,74.6.8-3.6,1.2-15.8,3.5-64.1.8-3.5.4.8,1.2,12,4.6,74.4.7-2.9,1.2-16.2,3.5-65.6.6-2.4.5,1.7,1.2,14.4,4.4,71,.3-.6,1.2-11.7,4.7-74.8.6,1.7,1.2,13.2,4.1,70,.7,2.3.5-1.1,1.2-10.9,5.4-75.1.5.8,1.2,8.9,2.3,36.4,2.3,33.3,1.2,7.1.4.6.7-1.5,1.2-8.3,2.3-30.3,2.9-36.7,1.8-9.7.6-.6.6.7,1.2,4.9,1.8,14.1,6.4,59.8,1.8,6.5,1.2,1.2,1.1-1,1.8-5,2.9-14.5,8.2-44.7,3.5-11.9,2.9-6.1,2.9-3.1,2.4-.7,2.3.6,2.9,2.3,3.5,5,3.5,7.5,4.1,12.2,4.7,18.5,8.8,36.9,1.8,3.5,1.1.6,1.3-1,1.2-2.8,1.8-7.8,2.3-16.9,7-57.1,1-1.5.8.9,1.2,5.2,1.8,15.8,5.9,64.3.6.8.6-1,1.2-7.5,1.8-22.9,3.5-50.7,1.2-5,.6,1.2,1.2,9.8,2.3,39.7,2.3,33.5.8,2.8.4-.6,1.2-9.9,2.3-43.5,1.8-28.1,1-5,.8,3,1.2,15.3,4.3,68.7.3-.7,1.2-11.8,4.6-74.7.7,2.9,1.2,16.3,3.5,65.6.6,2.4.5-1.7,1.2-14.4,4.4-71.1.3.6,1.2,11.3,4.8,75.2.5-1.3,1.2-12.3,4.9-73.5.3.5,1.2,9.3,2.3,40.4,2.3,33.3,1,3.7.8-2.2,1.2-10.8,5.9-73.8.3-.3.8,1.8,1.2,8.3,2.3,29.1,2.9,35.8,1.8,10.7.9,1.4.9-1.2,1.2-5.1,2.3-18.9,5.3-47.7,2.3-11.2,1.8-2.9,1.2.4,1.8,3.4,2.3,8.5,5.9,28.4,4.7,20.1,4.1,12.7,3.5,7.3,3.5,4.4,2.9,1.7,1.3.2,2.2-.5,2.3-1.8,2.9-4.4,2.9-7.1,3.5-12.6,4.1-20.2,7-35.7,1.8-4.2.9-.6,1.4,1.6,1.8,6.7,2.3,16.9,7,60.9.8,1.1.4-.3,1.2-4.2,1.8-15.3,5.9-66.7.5-.7.7,1.3,1.2,8.5,2.3,34.5,2.3,34.9,1.2,7.5.3.3.9-3,1.2-12.7,4.7-70.9.4-.6.8,3.1,1.2,14.4,4.1,68.5.5,1.2.7-2.6,1.2-14.9,4.4-69.6.3.6,1.2,11.6,4.6,74.9.7-2.9,1.2-16.3,3.5-65.6.6-2.4.5,1.7,1.2,14.3,4.1,70.7.3.5.9-4.2,1.2-17.1,3.5-63,.8-2.9.4.9,1.2,11.3,4.7,74.1.4.8.8-2.5,1.2-12.7,4.7-70.1.7-1.8.5.8,1.2,8.2,2.3,33.9,2.9,38.5,1.2,5.4.3.2.9-1.9,1.2-7.9,2.3-27.5,3.5-40.1,1.8-8.9.8-.9.4.2,1.2,3.2,1.8,10.5,9.4,68.9,1.8,3.7,1.1.6,1.3-.7,1.8-3.1,2.9-9,15.2-54.1,4.7-10.5,4.1-6.4,2.9-2.6,2-.6,1.5.3,1.8,1.4,2.3,3.9,2.3,6.6,2.9,12.5,4.1,24.4,5.3,31.5,1.8,5.4,1,.9,1.3-1.7,1.2-4.5,1.8-12,2.9-30.2,3.5-33.6,1.2-4.7.5-.4.7,1,1.2,6.1,1.8,18.7,4.7,58.7.9,2.7.8-2,1.2-9.9,2.3-36.8,2.3-33.4,1.1-5,.6,1.6,1.2,11.1,5.2,74.5.7-2.2,1.2-13.5,4.1-69.9.5-1.5.6,2.2,1.2,14.5,4.4,70.4.3-.5,1.2-11.5,4.6-75,.7,2.9,1.2,16.3,3.5,65.5.6,2.4.5-1.6,1.2-14.2,4.1-70.7.3-.6.8,3.9,1.2,16.5,3.5,63.2.8,3.5.3-.6,1.2-10.2,5.3-76.4.6,1.4,1.2,10.8,5.3,74.2.5.7.7-1.7,1.2-9.5,2.9-43,2.3-27.5,1.2-5.2.3-.3.8,1.6,1.2,7.1,2.3,25.6,3.5,39.6,1.8,10.7,1.4,2.5.4-.2,1.2-2.7,1.8-9,3.5-27.5,4.1-29.9,2.9-12.8,1.8-3.8,1.9-1.3,1.1.4,1.8,2,2.9,6.2,4.7,13.8,14.1,42.6,5.9,14.3,3.5,5.9,2.3,1.8h.7c0,.1,1.7-.6,1.7-.6l1.8-2.6,2.3-6.7,2.3-10.9,3.5-23.3,5.3-36.3,1.8-5.9.8-.7h.4c0,.1,1.2,2.7,1.2,2.7l1.8,10.1,2.3,23.3,4.1,44.2,1.2,5.9.6.9.5-.6,1.2-5.8,1.8-19.1,4.7-59.7.8-1.9.4.5,1.2,7.5,1.8,25,2.9,46.9,1.4,7.3.4-.7,1.2-9.5,2.3-41.6,2.3-33.6.6-1.8.6,1.6,1.2,12.7,4.7,72.8.6-1.9,1.2-14.2,4.4-71,.3.5,1.2,11.5,4.6,75.1.7-2.9,1.2-16.3,3.5-65.5.7-2.4.5,1.6,1.2,14,4.1,70.8.4.7.8-3.5,1.2-15.9,3.5-63.4.9-4.3.8,3.2,1.2,14.4,4.1,66.8.8,2.6.4-.6,1.2-8.7,2.3-37.6,2.3-33.8,1.4-6.5.3.4,1.2,6.6,1.8,21.5,4.1,53,1.2,5.3.4.4.7-1.1,1.2-6.1,2.3-23.2,4.1-43.8,1.8-10,1.2-2.7.4-.2,1.3,1.8,1.8,7.1,2.9,19.2,5.9,39.2,2.9,12.1,2.3,5.4,2.3,2.1h.6c0,0,1.7-.5,1.7-.5l2.3-2.5,3.5-6.2,5.3-12.6,7-20.4,13.5-41.3,2.3-3.1,1-.3,1.4.7,1.8,3.3,1.8,6.3,2.3,13.2,4.1,32.7,3.5,25.1,1.8,5.4.4.2.8-.8,1.2-4.4,1.8-13.5,3.5-42.1,2.3-22.3,1.3-4,.4.5,1.2,5.8,1.8,19.9,4.1,56.6,1.1,4.3.6-1.3,1.2-9.5,2.3-38.3,2.3-34.1,1-4,.8,2.7,1.2,13.3,4.8,71.2.5-1.1,1.2-11.9,4.7-74.1.6,1.7,1.2,14,4.1,70.9.3.5.9-4.4,1.2-18,3.5-63.4.5-1.3.7,2.9,1.2,16.3,3.5,65.4.7,2.5.5-1.5,1.2-13.7,4.1-71,.4-.9.8,3,1.2,15.2,4.1,67.9.5,1.1.7-2.3,1.2-13.1,4.7-71,.4-.8.7,2.1,1.2,11.2,5.3,72.5.7,1.4.5-.8,1.2-7.2,2.3-29.7,2.9-38.1,1.8-10.6.6-.8.5.6,1.2,4.8,1.8,14.4,6.4,60.8,1.8,5.9.9.7.9-.7,1.2-2.8,2.3-10.5,11.1-60.7,2.9-7.6,2.3-3.4,2.3-1.4h.7c0,0,2.2.6,2.2.6l2.9,2.5,3.5,5.2,4.1,8.7,4.1,11.6,4.7,16.9,10,38.1,1.8,3,1,.5,1.3-1,1.8-4.5,1.8-8.5,2.9-22.1,5.3-44.7,1.8-6.2.4-.2.8.9,1.2,5,1.8,15.2,5.9,64.5.7,1.4.4-.5,1.2-6.2,1.8-21.1,4.1-56.6.9-2.8.9,2.7,1.2,11.9,5.2,72.5.6-1.7,1.2-12.1,4.9-73.4.4.8,1.2,11.3,4.7,75.1.5-1.5,1.2-13.8,4.1-71.2.3-.5.9,4.4,1.2,18,3.5,63.4.5,1.3.7-2.9,1.2-16.3,3.5-65.3.7-2.6.5,1.4,1.2,13.4,4.1,71.1.5,1.2.7-2.5,1.2-14.4,4.1-68.5.6-1.7.6,1.5,1.2,11.6,5.4,74.1.5-.8,1.2-8.8,2.3-35.8,2.3-33.3,1.2-7.6.6-.9.6,1.1,1.2,7.4,2.3,28.8,3.5,42,1.8,7.7.3.2.8-1.2,1.2-5.3,2.3-19.7,5.3-48.6,2.3-10.4,1.2-1.8,1.2.2,1.2,2,1.8,5.7,3.5,17.1,7,35.1,3.5,12.3,3.5,8.2,2.9,4.1,2.9,2,1.7.3,2.4-.6,2.3-1.8,2.9-4,2.9-6.2,3.5-10.7,4.1-17.3,9.4-43.5,1.8-2.9,1.2.2,1.2,2.2,1.8,7.3,2.3,17.1,7,59,.8,1.1.3-.2,1.2-3.8,1.8-14.6,6.6-68.5.5.6,1.2,6.9,1.8,22.7,3.5,51.7,1.2,5.1.6-1.3,1.2-10.1,2.3-40.4,2.3-33.1.7-2.3.5.9,1.2,10.9,5,75.3.3-.5,1.2-10.7,4.8-76,.5,1.4,1.2,13.7,4.1,71.5.3.5.9-4.4,1.2-18,3.5-63.4.5-1.3.7,2.9,1.2,16.2,3.5,65.3.7,2.8.5-1.2,1.2-13,4.1-71.3.5-1.6.6,2,1.2,13.4,4.1,69.1.8,2.6.4-.8,1.2-9.9,2.3-40.3,2.3-32.6,1-3.6.8,2.1,1.2,10.5,5.9,73.9.5.6.7-1.2,1.2-7.2,2.3-27.4,3.5-41.3,1.8-9.2.7-.9.4.3,1.2,3.5,1.8,11.2,8.2,65.5,1.8,5.3,1.2,1.3,1.2-.2,1.8-2.8,2.3-7.2,4.7-19.8,6.4-26.1,4.7-14.1,4.1-8.8,3.5-5.1,3.5-2.7,1.7-.3,1.8.5,2.3,2.1,2.3,4,2.9,8.3,2.9,12.3,4.1,23.1,5.3,29.9,1.8,5.6,1.3,1.4,1.1-1,1.2-3.5,1.8-10.2,2.9-27.8,4.1-39.2,1.2-4.7.6-.6.6.7,1.2,5.5,1.8,17.6,5.3,62.2.6,1,.6-1,1.2-8.1,1.8-24.6,3.5-50.5.9-2.9.3.4,1.2,8.2,1.8,28.1,2.9,47,.9,3.4.3-.5,1.2-9.8,2.3-44.3,1.8-28.1.9-4.5.8,3.7,1.2,16.4,3.5,64.3.7,2.7.5-1.3,1.2-13.6,4.1-71.7.3-.5.9,4.4,1.2,18.1,3.5,63.3.5,1.3.7-2.8,1.2-16.1,3.5-65.2.7-3,.4,1.1,1.2,12.5,4.7,73.5.5-1.5,1.2-12.4,4.7-72.8.3-.5.8,2.9,1.2,13,4.7,69.4.7,1.8.4-.7,1.2-7.8,2.3-33,2.9-38.8,1.2-6.2.5-.6.7,1.1,1.2,6.7,2.3,25.6,3.5,40.7,1.8,10.8,1.3,2.3.5-.3,1.2-3.1,1.8-9.9,4.1-34,3.5-25.1,2.3-10,1.8-3.7,1.5-.9,1.5.8,1.8,2.8,2.9,7.6,6.4,21.9,7.6,24.4,6.4,16.6,4.7,8.9,2.9,3.3,2.1.8,2-.9,1.8-2.4,2.3-6.1,2.3-9.7,3.5-21,6.4-41.8,1.8-4.9.6-.4,1.1,1.4,1.2,4.5,1.8,12.5,3.5,38.5,2.9,26.6,1.3,3.7.4-.4,1.2-5,1.8-17.8,4.7-60.7,1-3.2.7,1.7,1.2,9.7,2.3,37.2,2.3,33.8,1.1,4.8.7-1.8,1.2-11.6,5.1-73.7.8,3,1.2,14.7,4.1,68.7.4.8.8-3.3,1.2-16.1,3.5-64.9.7-2.8.5,1.3,1.2,13.5,4.1,71.8.3.5.9-4.4,1.2-18.1,3.5-63.3.5-1.3.7,2.8,1.2,15.9,3.5,65.2.8,3.2.4-.9,1.2-11.9,4.8-74.3.4,1,1.2,11.2,5.2,75,.6-1.6,1.2-11,5.3-73.6.5-.8.7,1.5,1.2,8.9,2.3,32.8,2.9,37.2,1.2,6.1.6.7.6-.8,1.2-5.8,2.3-23.4,4.1-44.7,1.8-9.9,1.4-2.4.9,1,1.2,3.7,2.3,13.6,8.2,55.8,2.3,8.3,2.3,4.1,1.6.7,1.9-.9,2.3-3.1,3.5-7.4,6.4-17.5,19.3-54.9,2.3-2.8,1.1-.4,1.3.5,1.8,2.7,1.8,5.3,2.3,11.3,3.5,25,4.7,34.7,1.8,6.7.9.9h.3c0-.1,1.2-2.8,1.2-2.8l1.8-10.7,2.3-24.7,4.1-44.1,1.2-4.5.3-.2.9,1.8,1.2,8,2.3,31,2.9,40,1.4,6.3.3-.4,1.2-7.3,1.8-25.2,2.9-47.3,1.3-7,.5.9,1.2,10.1,2.3,42.5,1.8,28,1.1,5.7.7-2.3,1.2-14,4.1-69.9.4-1,.7,3,1.2,15.9,3.5,65.3.7,2.9.5-1.2,1.2-13.5.6-11.1"/>
  </g>
</svg>