<?xml version="1.0" encoding="UTF-8"?><svg id="Layer_1" xmlns="http://www.w3.org/2000/svg" viewBox="0 0 801 178.122"><defs><style>.cls-1{stroke:#2d70b3;}.cls-1,.cls-2{fill:none;stroke-linecap:round;stroke-linejoin:round;}.cls-2{stroke:#c74440;}</style></defs><path class="cls-2" d="M.5,72.279h0l2.93.021,2.93.528,3.125,1.104,3.32,1.742,3.711,2.558,4.492,3.784,6.641,6.419,9.375,8.982,4.688,3.687,3.711,2.269,3.32,1.443,3.125.798,2.93.23,2.93-.28,3.125-.85,3.32-1.494,3.516-2.182,4.102-3.198,5.469-5.039,14.453-13.722,4.297-3.101,3.516-1.914,3.32-1.209,3.125-.564,2.93-.005,2.93.503,3.125,1.078,3.32,1.717,3.711,2.534,4.492,3.763,6.641,6.405,9.57,9.171,4.688,3.679,3.711,2.261,3.32,1.434,3.125.79,2.93.221,2.93-.288,3.125-.858,3.32-1.502,3.516-2.189,4.102-3.206,5.469-5.044,14.453-13.714,4.297-3.093,3.516-1.905,3.32-1.2,3.125-.555,2.93.004,2.93.511,3.125,1.087,3.32,1.725,3.711,2.542,4.492,3.77,6.641,6.41,9.57,9.164,4.688,3.67,3.711,2.252,3.32,1.426,3.125.781,2.93.213,2.93-.296,3.125-.867,3.32-1.511,3.516-2.197,4.102-3.213,5.469-5.05,14.258-13.548,4.297-3.119,3.711-2.02,3.32-1.192,3.125-.546,2.93.012,2.93.519,3.125,1.095,3.32,1.733,3.711,2.55,4.492,3.777,6.641,6.414,9.375,8.988,4.688,3.696,3.711,2.278,3.32,1.452,3.125.807,2.836.239,3.023-.271,3.125-.841,3.32-1.485,3.516-2.173,4.102-3.191,5.469-5.032,14.648-13.887,4.297-3.076,3.516-1.888,3.32-1.183,3.125-.537,2.93.02,2.93.528,3.125,1.103,3.32,1.741,3.711,2.557,4.492,3.784,6.641,6.419,9.375,8.982,4.688,3.687,3.711,2.27,3.32,1.443,3.125.799,2.93.23,2.93-.279,3.125-.849,3.32-1.494,3.516-2.181,4.102-3.198,5.469-5.038,14.453-13.722,4.297-3.102,3.516-1.914,3.32-1.21,3.125-.564,2.93-.005,2.93.502,3.125,1.078,3.32,1.717,3.711,2.534,4.492,3.763,6.641,6.405,9.57,9.171,4.688,3.679,3.711,2.261,3.32,1.435,3.125.79,2.93.222,2.93-.288,3.125-.858,3.32-1.502,3.516-2.189,4.102-3.205,5.469-5.044,14.453-13.714,4.297-3.093,3.516-1.906,3.32-1.201,3.125-.555,2.93.003,2.93.511,3.125,1.086,3.32,1.725,3.711,2.542,4.492,3.77,6.641,6.41,9.57,9.164,4.688,3.671,3.711,2.253,3.32,1.426,3.125.781,2.93.213,2.93-.296,3.125-.867,3.32-1.511,3.516-2.197,4.102-3.213,5.469-5.05,14.258-13.548,4.297-3.119,3.711-2.02,3.32-1.192,3.125-.547,2.93.012,2.93.519,3.125,1.095,3.32,1.733,3.711,2.549,4.492,3.777,6.641,6.414,9.375,8.989,4.688,3.696,3.711,2.278,3.32,1.452,3.125.808,2.838.239,3.021-.271,3.125-.84.391-.144"/><path class="cls-1" d="M.5,145.586h0l.326-1.583.26,1.01.391,4.996,1.562,27.365.128.247.263-1.03.391-5.004,1.562-27.308.137-.277.254.945.391,4.826,1.562,27.396.178.452.213-.641.391-4.271,1.838-28.707.116.18.391,3.143.586,10.203.977,17.545.456,2.548.13-.211.391-3.035.586-9.646.977-17.287.391-3.119.169-.321.222.546.391,3.44.781,13.076.977,14.687.439,1.869.147-.211.391-2.501.586-7.906,1.367-20.537.391-2.251.161-.212.229.424.391,2.552.781,10.108,1.172,16.385.586,3.823.391.155.391-1.714.586-5.436,2.148-24.498.391-1.543.391-.15.391,1.18.586,3.881,1.172,12.024,1.172,11.23.781,4.228.594.97.382-.381.586-1.93.781-4.532,3.516-23.665.781-2.282.864-.829.503.255.781,1.292.977,2.78,1.758,6.737,2.93,11.206,1.758,5.037,1.562,3.176,1.562,2.026,1.367.915,1.172.188,1.172-.353,1.172-.907,1.367-1.804,1.562-3.133,1.562-4.348,1.953-7.015,3.711-13.862.977-1.861.576-.331.596.386.586,1.182.781,2.881.977,5.589,1.953,14.766,1.172,6.986.586,1.635.391.154.391-.673.586-2.597.781-6.148,2.539-23.325.437-.837.344.539.391,1.917.586,5.24,2.344,25.512.391.293.391-1.647.586-5.802,1.953-25.227.322-.826.264.571.391,2.873.781,11.283,1.172,17.092.436,1.8.15-.221.391-2.599.586-8.431,1.172-19.553.391-2.653.12-.161.271.821.391,3.922.781,14.13.781,12.61.42,2.136.166-.345.391-3.416.781-14.373.781-13.325.405-2.16.181.44.391,3.81.781,15.219.781,12.821.307,1.329.279-1.1.391-4.94,1.562-27.231.153-.348.237.828.391,4.703,1.562,27.691.162.396.228-.782.391-4.687,1.562-27.766.159-.383.231.801.391,4.708,1.562,27.703.165.406.225-.748.391-4.569,1.764-28.301.19.513.391,4.076.977,19.532.586,8.365.289,1.132.101-.14.391-3.033.586-10.165.977-17.689.457-2.591.129.209.391,3.06.586,9.735.977,17.324.391,3.025.152.265.238-.642.391-3.622.781-13.341.781-12.585.391-3.024.201-.405.189.355.391,2.846.781,11.693.977,15.041.669,3.682.112-.105.391-1.937.586-6.663,1.758-23.359.484-1.554.102.068.391,1.48.586,5.298,2.344,25.969.408.803.373-.646.586-3.365.977-9.783,1.562-15.6.586-3.137.604-1.088.373.394.586,2.074.781,4.884,3.125,22.658.781,2.65.586.866.586-.028.586-.815.781-2.076,1.172-4.544,4.297-18.02,1.367-3.724,1.367-2.494,1.367-1.388,1.172-.427,1.172.183,1.172.727,1.367,1.483,1.758,2.88,1.758,3.985,1.953,5.7,5.664,17.784.781.807.586-.032.586-.666.781-1.973.977-4.261,1.172-7.389,2.539-16.88.586-1.897.442-.461.339.285.391,1.053.586,3.026.781,6.395,2.344,21.428.391,1.26.391.019.391-1.296.586-4.31.977-11.637,1.172-13.393.586-2.751.114-.079.277.471.391,2.251.586,6.411,1.758,23.048.432,1.437.154-.187.391-2.143.586-7.113,1.562-22.762.389-1.414.197.371.391,2.874.586,8.619,1.172,19.19.391,2.454.1.111.29-.93.391-4.013.977-17.868.586-8.706.419-2.101.167.344.391,3.384.781,14.263.781,13.354.418,2.273.168-.377.391-3.659.781-15.042.781-13.027.329-1.513.257.928.391,4.711,1.562,27.495.181.484.209-.643.391-4.414,1.756-28.562.197.584.391,4.372,1.753,28.663.2-.6.391-4.401,1.757-28.618.196.57.391,4.298,1.788,28.751.166-.395.391-3.865.781-15.442.781-12.652.305-1.266.281,1.071.391,4.713,1.827,27.835.126-.201.391-3.066.586-9.807.977-17.374.391-2.95.138-.221.253.73.391,3.783.977,17.234.781,10.57.358,1.302.228-.523.391-3.168.781-12.142.977-14.771.391-2.652.205-.364.185.292.391,2.43.586,7.271,1.562,21.51.391,1.927.165.188.226-.344.391-2.133.586-6.122,1.953-23.233.391-1.576.391-.036.391,1.427.586,4.424,2.734,26.262.642,1.331.334-.344.586-2.126.781-5.153,2.93-22.42.781-2.751.586-.789.391.045.586.833.781,2.29,1.172,5.116,3.711,17.42,1.367,4.118,1.172,2.257,1.172,1.199,1.025.306.928-.224,1.172-.847,1.562-1.927,1.953-3.441,2.148-4.91,2.539-7.101,4.492-12.886,1.172-1.864.8-.419.567.235.781,1.159.781,2.219.977,4.293,1.367,8.364,2.344,14.657.781,2.379.381.312.4-.361.586-1.869.781-4.894,1.172-11,1.367-12.318.586-2.722.34-.455.441.791.586,3.47.781,8.163,1.562,18.142.586,2.908.158.145.428-1.084.586-4.831.977-13.611.977-11.966.391-1.964.146-.163.244.46.391,2.606.586,7.519,1.367,20.475.391,2.368.143.191.247-.574.391-3.159.781-12.352.977-15.236.468-2.299.118.152.391,2.614.586,8.909,1.172,19.898.416,2.045.17-.353.391-3.371.781-14.167.781-13.36.429-2.369.157.326.391,3.523.781,14.868.781,13.205.35,1.697.236-.778.391-4.489,1.771-28.352.182.484.391,4.125,1.787,29.009.166-.415.391-4.051.977-20.187.586-8.221.223-.745.168.426.391,4.082.977,20.18.586,8.183.224.748.166-.413.391-4.012.977-19.968.586-8.325.25-.901.141.287.391,3.638.781,15.327.781,12.948.322,1.419.264-.955.391-4.603,1.833-28.06.121.187.391,3.053.586,9.86.977,17.438.391,2.892.127.189.264-.809.391-3.924.977-17.458.781-10.343.323-1.084.262.706.391,3.466.781,12.541.977,14.464.391,2.273.138.168.253-.555.391-2.896.781-10.946,1.172-16.375.391-2.419.245-.427.146.15.391,1.811.586,5.9,1.953,23.862.391,1.668.391.054.391-1.483.586-4.614,2.734-26.44.391-.856.391.192.391,1.164.586,3.279,1.172,9.872,1.562,12.944.781,4.066.586,1.627.499.424.477-.363.586-1.342.977-3.915,1.758-9.575,1.953-9.879,1.367-4.789,1.172-2.492.977-1.031.977-.219.977.448,1.172,1.226,1.758,2.844,2.344,4.973,3.32,8.358,4.883,12.515,1.367,2.322.977.836.781-.006.781-.737.781-1.571.977-3.229,1.172-5.676,2.148-13.336,1.172-6.196.781-2.36.586-.403.391.49.586,1.943.781,4.77,1.172,10.534,1.367,12.105.586,2.978.46.772.321-.393.391-1.547.586-4.396.977-11.187,1.172-12.912.586-2.979.191-.204.395.883.391,2.579.781,9.255,1.367,18.051.391,2.412.244.439.146-.16.391-1.98.586-6.714,1.758-24.042.283-.723.107.105.391,2.143.586,7.67,1.367,21.68.442,2.021.144-.222.391-2.777.586-8.99,1.172-19.662.41-1.968.176.37.391,3.375.781,14.083.781,13.343.439,2.448.147-.285.391-3.402.781-14.698.781-13.356.37-1.878.216.649.391,4.274,1.798,28.696.155-.351.391-3.839.781-15.768.781-12.695.255-.965.136.277.391,3.725.781,15.833.781,12.814.254.969.136-.281.391-3.753.781-15.861.781-12.761.254-.962.136.278.391,3.712.781,15.701.781,12.828.275,1.099.115-.193.391-3.394.781-15.188.781-13.251.34-1.592.246.836.391,4.476,1.839,28.306.114-.168.391-3.021.586-9.895.977-17.516.391-2.853.118-.165.273.876.391,4.047,2.05,28.695.098-.102.391-2.335.586-8.121,1.367-21.108.466-1.952.12.129.391,2.136.586,7.189,1.562,22.13.391,1.897.137.138.254-.465.391-2.42.781-9.373,1.367-17.756.586-3.325.391-.127.391,1.489.586,4.747,2.539,25.897.391,1.174.391.043.391-1.023.586-3.239.977-8.349,1.758-15.291.781-3.997.586-1.407.32-.195.461.384.586,1.489.781,3.352,1.562,9.144,1.953,10.926,1.172,4.558.977,2.391.977,1.181.781.182.781-.384.977-1.118,1.562-2.828,2.344-5.521,7.812-19.13,1.758-3.029,1.367-1.372.977-.201.781.439.977,1.439.977,2.551,1.172,4.589,1.562,8.3,2.344,12.854.781,2.58.586.816.391-.097.586-1.204.586-2.512.781-5.232,3.125-24.09.364-.456.417.622.586,2.977.781,7.283,1.953,20.858.391,1.635.391.074.391-1.576.586-5.237,2.344-26.495.14-.141.251.455.391,2.489.586,7.181,1.562,21.971.419,1.523.167-.25.391-2.496.586-7.955,1.367-21.183.413-1.735.173.316.391,2.955.586,9.082,1.172,19.395.403,1.871.183-.398.391-3.396.781-14.013.781-13.304.446-2.507.139.253.391,3.297.781,14.536.781,13.48.389,2.053.197-.537.391-4.068.977-19.642.586-8.385.262-.986.129.242.391,3.556.781,15.527.781,13.092.285,1.202.106-.167.391-3.397.781-15.573.781-13.258.286-1.222.105.166.391,3.416.781,15.617.781,13.214.285,1.206.106-.168.391-3.4.781-15.492.781-13.235.302-1.323.284,1.168.391,5.053,1.562,27.02.164.377.227-.717.391-4.332,1.848-28.57.105.145.391,2.971.586,9.913.977,17.608.391,2.832.111.149.279-.931.391-4.15,2.023-28.537.126.17.391,2.589.586,8.454,1.172,19.087.391,2.897.213.422.177-.288.391-2.561.586-7.711,1.367-20.156.391-2.495.231-.406.159.19.391,2.003.586,6.336,1.758,22.708.391,2.014.391.258.391-1.44.586-4.817,2.539-26.206.391-.985.124-.06.462.804.586,3.078.977,8.514,1.758,15.908.781,3.998.586,1.237h.391s.586-1.125.586-1.125l.781-3.209,1.172-7.057,2.344-14.412,1.172-4.713.977-2.229.781-.735.586-.012.781.592,1.172,1.904,1.562,3.75,7.812,20.53,2.148,3.897,1.758,2.145,1.172.689.977-.024.781-.495.977-1.313,1.172-2.728,1.172-4.068,1.562-7.303,3.125-15.341.781-1.904.504-.378.472.355.586,1.474.781,3.77.977,7.209,2.344,18.69.586,1.923.391.126.391-.889.586-3.235.781-7.331,1.953-20.242.391-1.598.391-.112.391,1.464.586,4.971,1.172,15.724.781,8.809.391,2.162.391.15.391-1.969.586-6.481,1.758-23.906.354-1.068.232.47.391,2.855.586,8.231,1.367,20.616.38,1.448.206-.438.391-3.148.781-12.892.977-15.387.393-1.754.193.436.391,3.436.781,13.956.781,13.244.453,2.546.133-.229.391-3.208.586-10.265.977-17.697.407-2.22.179.443.391,3.873.781,15.407.781,12.718.287,1.177.104-.156.391-3.278.586-10.932.977-17.794.315-1.459.271,1.088.391,5.06,1.562,27.246.122.226.268-1.079.391-5.081,1.562-27.241.12-.217.271,1.09.391,5.066,1.562,27.199.134.263.257-.962.391-4.826,1.562-27.351.184-.479.206.598.391,4.171,1.758,28.714.101.135.29-1.104.391-4.646,1.758-27.728.107-.14.284.971.391,4.236,1.998,28.411.15-.246.391-2.822.586-8.755,1.172-18.959.391-2.591.16-.244.23.496.391,2.961.781,11.454.977,14.699.586,3.861.137.148.253-.493.391-2.569.781-9.878,1.367-17.895.681-2.783.1.059.391,1.334.586,4.821,2.539,26.562.448.842.333-.449.391-1.595.781-5.904,2.539-22.82.586-2.252.502-.599.474.504.586,1.876.977,5.387,3.32,21.049.977,3.252.781,1.289.568.262.604-.271.781-1.055,1.172-2.691,1.953-6.055,3.711-11.602,2.148-5.208,1.953-3.533,1.758-2.142,1.367-.898,1.172-.136.977.415.977.974,1.172,2.012,1.172,3.032,1.367,4.863,1.953,8.916,2.148,9.73.977,2.812.816.836.356-.174.586-1.082.781-3.048.977-6.207,2.93-21.741.586-1.333.391.223.391,1.176.586,3.515.977,9.563,1.562,16.132.586,2.74.391.097.391-1.405.586-4.771,1.172-15.316.977-10.393.391-1.519.104-.073.286.555.391,2.513.586,6.992,1.562,21.675.479,1.884.107-.097.391-1.99.586-7.202,1.562-23.165.343-1.165.243.594.391,3.354.781,12.982.977,15.069.38,1.62.206-.489.391-3.493.781-13.913.781-13.161.457-2.563.129.212.391,3.136.586,10.147.977,17.748.423,2.376.163-.364.391-3.689.781-15.214.781-12.976.311-1.375.275,1.078.391,4.942,1.562,27.269.149.329.242-.864.391-4.767,1.562-27.632.154-.356.237.842.391,4.775,1.562,27.657.151.344.24-.858.391-4.779,1.562-27.597.161-.385.229.77.391,4.582,1.768,28.266.185-.484.391-3.994.977-19.392.586-8.486.308-1.263.278,1.026.391,4.589,1.758,27.867.105.137.286-.997.391-4.303,1.758-27.784.219-.534.172.326.391,3.034.781,12.647.977,15.195.391,2.295.112.121.279-.74.391-3.336.781-11.953.977-14.385.391-2.721.245-.484.146.169.391,2.046.586,6.608,1.758,23.004.391,1.661.144.131.442-1.181.586-4.75,2.539-26.978.4-.709.381.621.586,3.137.977,9.154,1.562,15.291.781,4.289.655,1.126.321-.258.586-1.69.781-4.192,1.758-12.926,1.367-8.69.977-3.93.781-1.593.585-.339.587.313.781,1.268,1.172,3.236,2.148,7.875,2.734,9.595,1.758,4.721,1.758,3.412,1.562,1.983,1.367.963,1.129.252,1.215-.305,1.172-.91,1.367-1.917,1.367-2.943"/><path class="cls-2" d="M.5,33.738h0l.391.329.391-1.09.586-4.063.977-11.068,1.172-13.1.586-3.55.386-.695.395.728.586,3.595.781,8.275,1.562,17.532.586,3.091.391.351.391-1.068.586-4.035.977-11.047,1.172-13.126.586-3.58.392-.717.389.706.586,3.565.781,8.252,1.562,17.56.586,3.121.298.414.484-1.087.586-4.006.977-11.025,1.172-13.151.586-3.609.398-.74.383.684.391,2.049.781,7.399,1.953,21.272.586,2.16.109.055.477-1.059.586-3.978.977-11.003,1.367-14.695.586-2.679.391-.051.391,1.359.586,4.401,1.172,13.754.977,10.318.586,3.182.31.449.471-1.032.586-3.95.977-10.98,1.367-14.729.586-2.71.391-.074.391,1.337.586,4.374,1.172,13.736.977,10.347.586,3.213.316.468.465-1.006.586-3.921.977-10.958,1.367-14.762.586-2.741.391-.096.391,1.316.586,4.347,1.172,13.719.977,10.375.586,3.243.322.486.459-.979.586-3.893.977-10.935,1.367-14.796.586-2.773.391-.119.391,1.294.586,4.319,1.172,13.7.977,10.402.586,3.273.329.505.453-.953.586-3.864.977-10.912,1.367-14.829.586-2.804.391-.142.391,1.272.586,4.292,1.172,13.682.977,10.43.586,3.304.335.524.446-.928.586-3.835.977-10.889,1.367-14.862.586-2.835.391-.164.391,1.25.586,4.265.977,11.218,1.172,12.903.586,3.334.341.543.44-.902.586-3.806.977-10.865,1.367-14.894.586-2.866.391-.187.391,1.228.586,4.237.977,11.198,1.172,12.931.586,3.364.347.563.434-.877.586-3.777.977-10.841,1.367-14.926.586-2.897.391-.21.391,1.206.586,4.21.977,11.178,1.172,12.959.586,3.394.353.583.428-.853.586-3.748.977-10.817,1.367-14.958.586-2.928.391-.232.391,1.184.586,4.182.977,11.158,1.172,12.986.586,3.424.36.604.422-.828.586-3.719.977-10.793,1.367-14.989.586-2.959.391-.255.391,1.162.586,4.154.977,11.137,1.172,13.013.586,3.454.366.625.415-.804.586-3.69.977-10.769,1.367-15.021.586-2.99.391-.277.391,1.14.586,4.126.977,11.116,1.172,13.04.586,3.483.372.646.409-.781.586-3.661.977-10.744,1.367-15.051.586-3.021.391-.3.391,1.118.586,4.098.977,11.095,1.172,13.067.586,3.513.378.667.403-.757.586-3.632.781-8.304,1.562-17.497.586-3.052.391-.323.391,1.096.586,4.07.977,11.074,1.172,13.093.586,3.543.384.689.397-.734.586-3.602.781-8.281,1.562-17.525.586-3.083.391-.345.391,1.074.586,4.042.977,11.052,1.172,13.119.586,3.572.391.711.391-.712.586-3.573.781-8.258,1.562-17.553.586-3.113.296-.41.485,1.094.586,4.014.977,11.03,1.172,13.145.586,3.602.397.734.384-.69.391-2.054.781-7.407,1.953-21.263.586-2.151.107-.054.479,1.066.586,3.985.977,11.008,1.367,14.686.586,2.67.391.045.391-1.365.586-4.408,1.172-13.759.977-10.311.586-3.174.308-.445.473,1.039.586,3.957.977,10.986,1.367,14.72.586,2.702.391.068.391-1.343.586-4.381,1.172-13.741.977-10.339.586-3.205.315-.463.467,1.013.586,3.929.977,10.964,1.367,14.754.586,2.733.391.09.391-1.321.586-4.354,1.172-13.723.977-10.367.586-3.235.321-.481.46.986.586,3.9.977,10.941,1.367,14.787.586,2.765.391.113.391-1.299.586-4.327,1.172-13.705.977-10.395.586-3.266.327-.5.454.96.586,3.871.977,10.918,1.367,14.82.586,2.796.391.136.391-1.278.586-4.299,1.172-13.687.977-10.423.586-3.296.333-.519.448.934.586,3.843.977,10.895,1.367,14.853.586,2.827.391.158.391-1.256.586-4.272.977-11.223,1.172-12.895.586-3.326.339-.538.442.909.586,3.814.977,10.871,1.367,14.886.586,2.858.391.181.391-1.234.586-4.244.977-11.203,1.172-12.924.586-3.356.346-.558.436.884.586,3.785.977,10.848,1.367,14.918.586,2.889.391.204.391-1.212.586-4.217.977-11.183,1.172-12.951.586-3.386.352-.578.429.859.586,3.756.977,10.824,1.367,14.95.586,2.92.391.226.391-1.19.586-4.189.977-11.163,1.172-12.979.586-3.416.358-.598.423.835.586,3.727.977,10.8,1.367,14.981.586,2.951.391.249.391-1.168.586-4.161.977-11.142,1.172-13.006.586-3.446.364-.619.417.81.586,3.698.977,10.775,1.367,15.012.586,2.982.391.272.391-1.146.586-4.133.977-11.122,1.172-13.033.586-3.476.37-.64.411.787.586,3.669.977,10.751,1.367,15.043.586,3.013.391.294.391-1.124.586-4.106.977-11.101,1.172-13.06.586-3.505.377-.662.405.763.586,3.639.977,10.726,1.367,15.074.586,3.044.391.317.391-1.102.586-4.078.977-11.079,1.172-13.086.586-3.535.383-.683.398.74.586,3.61.781,8.287,1.562,17.518.586,3.075.391.339.391-1.08.586-4.049.977-11.058,1.172-13.112.586-3.565.389-.706.392.718.586,3.58.781,8.264,1.562,17.546.586,3.105.294.405.487-1.101.586-4.021.977-11.036,1.172-13.138.586-3.594.395-.728.386.695.391,2.06.781,7.414,1.953,21.254.586,2.143.105.052.481-1.074.586-3.993.977-11.014,1.172-13.163.586-3.623.401-.751.38.673.391,2.039.781,7.385,1.953,21.287.586,2.175.111.058.474-1.046.586-3.965.977-10.992,1.367-14.711.586-2.694.391-.062.391,1.349.586,4.388,1.172,13.746.977,10.332.586,3.197.313.458.468-1.02.586-3.936.977-10.97,1.367-14.745.586-2.725.391-.085.391,1.327.586,4.361,1.172,13.728.977,10.36.586,3.227.319.476.462-.993.586-3.908.977-10.947,1.367-14.778.586-2.756.391-.107.391,1.305.586,4.334,1.172,13.71.977,10.388.586,3.258.325.495.456-.967.586-3.879.977-10.924,1.367-14.812.586-2.788.391-.13.391,1.283.586,4.306,1.172,13.692.977,10.416.586,3.288.332.514.45-.941.586-3.85.977-10.901,1.367-14.845.586-2.819.391-.152.391,1.261.586,4.279.977,11.228,1.172,12.888.586,3.318.338.533.443-.915.586-3.821.977-10.877,1.367-14.877.586-2.85.391-.175.391,1.24.586,4.252.977,11.208,1.172,12.916.586,3.348.344.553.437-.89.586-3.793.977-10.854,1.367-14.909.586-2.881.391-.198.391,1.218.586,4.224.977,11.188,1.172,12.944.586,3.378.35.573.431-.865.586-3.764.977-10.83,1.367-14.941.586-2.912.391-.22.391,1.196.586,4.196.977,11.168,1.172,12.972.586,3.408.356.593.425-.841.586-3.734.977-10.806,1.367-14.973.586-2.943.391-.243.391,1.174.586,4.169.977,11.148,1.172,12.999.586,3.438.363.614.419-.817.586-3.705.977-10.782,1.367-15.004.586-2.974.391-.266.391,1.152.586,4.141.977,11.127,1.172,13.026.586,3.468.369.635.413-.793.586-3.676.977-10.757,1.367-15.035.586-3.005.391-.288.391,1.13.586,4.113.977,11.106,1.172,13.053.586,3.498.375.656.406-.77.586-3.647.977-10.732,1.367-15.066.586-3.036.391-.311.391,1.108.586,4.085.977,11.085,1.172,13.079.586,3.527.381.678.4-.746.586-3.618.781-8.293,1.562-17.51.586-3.067.391-.333.391,1.086.586,4.057.977,11.063,1.172,13.105.586,3.557.387.7.394-.724.586-3.588.781-8.27,1.562-17.538.586-3.097.391-.356.391,1.063.586,4.029.977,11.042,1.172,13.131.586,3.586.394.722.388-.701.586-3.559.781-8.247,1.562-17.566.586-3.128.299-.418.482,1.081.586,4,.977,11.02,1.172,13.157.586,3.616.4.745.382-.679.391-2.044.781-7.393,1.953-21.279.586-2.167.11-.057.476,1.053.586,3.972.977,10.998,1.367,14.702.586,2.685.391.056.391-1.354.586-4.395,1.172-13.75.977-10.324.586-3.189.311-.453.47,1.026.586,3.943.977,10.975,1.367,14.736.586,2.717.391.079.391-1.333.586-4.368,1.172-13.733.977-10.353.586-3.219.318-.471.464,1,.586,3.915.977,10.953,1.367,14.77.586,2.748.391.101.391-1.311.586-4.341,1.172-13.715.977-10.381.586-3.25.324-.49.457.974.586,3.886.977,10.93,1.367,14.803.586,2.78.391.124.391-1.289.586-4.313,1.172-13.696.977-10.409.586-3.28.33-.509.451.948.586,3.858.977,10.907,1.367,14.836.586,2.811.391.147.391-1.267.586-4.286,1.172-13.678.977-10.436.586-3.31.336-.528.445.922.586,3.829.977,10.884,1.367,14.869.586,2.842.391.169.391-1.245.586-4.259.977-11.214,1.172-12.909.586-3.34.342-.548.439.897.586,3.8.977,10.86,1.367,14.901.586,2.873.391.192.391-1.223.586-4.231.977-11.194,1.172-12.937.586-3.37.349-.567.433.872.586,3.771.977,10.836,1.367,14.933.586,2.904.391.215.391-1.201.586-4.204.977-11.173,1.172-12.965.586-3.4.355-.588.427.847.586,3.742.977,10.812,1.367,14.965.586,2.935.391.237.391-1.179.586-4.176.977-11.153,1.172-12.992.586-3.43.361-.608.42.823.586,3.713.977,10.788,1.367,14.996.586,2.966.391.26.391-1.157.586-4.148.977-11.132,1.172-13.019.586-3.46.367-.629.414.799.586,3.684.977,10.764,1.367,15.027.586,2.997.391.282.391-1.135.586-4.12.977-11.112,1.172-13.046.586-3.49.373-.65.408.776.586,3.655.977,10.739,1.367,15.058.586,3.028.391.305.391-1.113.586-4.092.977-11.09,1.172-13.072.586-3.52.38-.672.402.752.586,3.625.781,8.299,1.562,17.503.586,3.059.391.328.391-1.091.586-4.064.977-11.069,1.172-13.099.586-3.549.386-.694.396.729.586,3.596.781,8.276,1.562,17.531.586,3.089.391.35.391-1.069.586-4.036.977-11.047,1.172-13.125.586-3.579.392-.716.389.707.586,3.566.781,8.253,1.562,17.559.586,3.12.297.414.484-1.088.586-4.008.977-11.026,1.172-13.15.586-3.608.398-.739.383.685.391,2.05.781,7.401,1.953,21.27.586,2.158.108.055.478-1.061.586-3.979.977-11.004,1.367-14.693.586-2.677.391-.05.391,1.36.586,4.402,1.172,13.755.977,10.317.586,3.181.31.449.471-1.033.586-3.951.977-10.981,1.367-14.727.586-2.709.391-.073.391,1.338.586,4.375,1.172,13.737.977,10.345.586,3.211.316.467.465-1.007.586-3.922.977-10.959,1.367-14.761.586-2.74.391-.095.391,1.317.586,4.348,1.172,13.719.977,10.373.586,3.242.322.485.459-.98.586-3.894.977-10.936,1.367-14.794.586-2.771.391-.118.391,1.295.586,4.321,1.172,13.701.977,10.401.586,3.272.328.504.453-.954.586-3.865.977-10.913,1.367-14.827.586-2.803.391-.141.391,1.273.586,4.293,1.172,13.683.977,10.429.586,3.302.335.523.447-.929.586-3.836.977-10.89,1.367-14.86.586-2.834.391-.163.391,1.251.586,4.266.977,11.219,1.172,12.902.586,3.332.341.542.44-.903.586-3.808.977-10.866,1.367-14.893.586-2.865.391-.186.391,1.229.586,4.238.977,11.199,1.172,12.93.586,3.362.347.562.434-.878.586-3.779.977-10.842,1.367-14.925.586-2.896.391-.209.391,1.207.586,4.211.977,11.179,1.172,12.957.586,3.393.353.582.428-.854.586-3.75.977-10.819,1.367-14.956.586-2.927.391-.231.391,1.185.586,4.183.977,11.158,1.172,12.985.586,3.422.359.603.422-.829.586-3.721.977-10.794,1.367-14.988.586-2.958.391-.254.391,1.163.586,4.155.977,11.138,1.172,13.012.586,3.452.366.624.416-.805.586-3.691.977-10.77,1.367-15.019.586-2.989.391-.276.391,1.141.586,4.127.977,11.117,1.172,13.039.586,3.482.372.645.41-.782.586-3.662.977-10.745,1.367-15.05.586-3.02.391-.299.391,1.119.586,4.099.977,11.096,1.172,13.065.586,3.512.378.666.403-.758.586-3.633.977-10.72,1.367-15.08.586-3.051.391-.322.391,1.097.586,4.071.977,11.075,1.172,13.092.586,3.541.384.688.397-.735.586-3.604.781-8.282,1.562-17.524.586-3.081.391-.344.391,1.075.586,4.043.977,11.053,1.172,13.118.586,3.571.39.71.391-.713.586-3.574.781-8.259,1.562-17.552.586-3.112.296-.409.486,1.095.586,4.015.977,11.031,1.172,13.144.586,3.6.396.733.385-.691.391-2.055.781-7.408,1.953-21.262.586-2.15.107-.053.479,1.068.586,3.987.977,11.009,1.367,14.684.586,2.669.391.044.391-1.366.586-4.409,1.172-13.759.977-10.31.586-3.173.308-.444.473,1.04.586,3.958.977,10.987,1.367,14.718.586,2.7.391.067.391-1.344.586-4.382,1.172-13.742.977-10.338.586-3.204.314-.462.467,1.014.586,3.93.977,10.965,1.367,14.752.586,2.732.391.089.391-1.322.586-4.355,1.172-13.724.977-10.366.586-3.234.321-.48.461.987.586,3.901.977,10.942,1.367,14.786.586,2.763.391.112.391-1.3.586-4.328,1.172-13.706.977-10.394.586-3.264.327-.499.455.961.586,3.873.977,10.919,1.367,14.819.586,2.794.391.135.391-1.279.586-4.3,1.172-13.688.977-10.422.586-3.294.333-.518.448.935.586,3.844.977,10.896,1.367,14.852.586,2.826.391.157.391-1.257.586-4.273.977-11.224,1.172-12.894.586-3.325.339-.537.442.91.586,3.815.977,10.872,1.367,14.884.586,2.857.391.18.391-1.235.586-4.246.977-11.204,1.172-12.922.586-3.355.345-.557.436.885.586,3.786.977,10.849,1.367,14.916.586,2.888.391.203.391-1.213.586-4.218.977-11.184,1.172-12.95.586-3.385.352-.577.43.86.586,3.757.977,10.825,1.367,14.948.586,2.919.391.225.391-1.191.586-4.19.977-11.164,1.172-12.978.586-3.415.358-.597.424.836.586,3.728.977,10.801,1.367,14.98.586,2.95.391.248.391-1.169.586-4.163.977-11.143,1.172-13.005.586-3.444.364-.618.417.812.586,3.699.977,10.776,1.367,15.011.586,2.981.391.271.391-1.147.586-4.135.977-11.122,1.172-13.032.586-3.474.37-.639.411.788.586,3.67.977,10.752,1.367,15.042.586,3.012.391.293.391-1.125.586-4.107.977-11.102,1.172-13.058.586-3.504.376-.661.405.764.586,3.641.977,10.727,1.367,15.073.586,3.043.391.316.391-1.103.586-4.079.977-11.08,1.172-13.085.586-3.534.383-.682.399.741.586,3.611.781,8.288,1.562,17.516.586,3.073.391.338.391-1.081.586-4.051.195-1.89"/></svg>